<svg xmlns="http://www.w3.org/2000/svg" width="300" height="300" viewBox="0 0 300 300"><path fill-rule="evenodd" clip-rule="evenodd" d="M45.3 180.882c-2.257 0-4.515.06-6.77-.02-2.02-.065-3.44-1.06-4.028-3.07-.654-2.247-1.67-4.697.634-6.457 2.35-1.792 4.924-3.342 7.558-4.684 2.774-1.413 5.328-2.978 7.146-5.565 5.43-7.74 2.32-17.685-6.558-20.898-2.875-1.04-5.82-1.895-8.65-3.043-3.604-1.463-4.36-2.688-4.086-5.794.335-3.787 1.233-5.032 5.032-5.775 2.836-.556 5.77-.623 8.66-.89 8.46-.783 14.503-8.34 13.09-16.405-.608-3.463-2.54-6.123-5.106-8.422-2.383-2.134-4.74-4.298-7.03-6.53-1.583-1.543-1.888-3.36-.77-5.37 1.24-2.223 2.512-4.558 5.55-4.02 2.775.492 5.533 1.237 8.19 2.177 4.183 1.482 8.246 1.68 12.29-.305 6.943-3.41 9.742-11.052 6.582-18.11-1.25-2.79-2.813-5.44-3.947-8.27-1.583-3.946-.936-5.57 2.504-7.98 1.59-1.112 3.288-1.496 4.888-.39 2.438 1.683 4.84 3.462 7.032 5.45 5.814 5.272 13.683 5.72 19.488.845 3.902-3.278 5.023-7.667 4.723-12.575-.168-2.757-.415-5.528-.312-8.28.126-3.423 1.216-4.568 4.525-5.534 2.99-.873 4.412-.503 6.288 2.382 1.577 2.425 2.748 5.115 4.082 7.696 4.312 8.35 14.66 10.57 21.664 4.632 2.475-2.1 3.81-4.89 4.823-7.912.853-2.548 1.705-5.122 2.886-7.523 1.49-3.027 3.05-3.595 6.686-3.058 2.663.394 3.837 1.438 4.374 4.654.476 2.86.533 5.79.817 8.685.847 8.637 7.98 14.388 16.132 12.987 3.77-.647 6.633-2.82 9.15-5.566 2.016-2.195 3.986-4.45 6.18-6.457 2.342-2.142 3.828-2.116 6.732-.47 2.55 1.44 3.322 2.728 2.717 5.774-.537 2.696-1.437 5.332-2.33 7.94-1.464 4.27-1.56 8.464.63 12.483 3.168 5.806 9.728 8.448 16.086 6.256 3.905-1.348 7.612-3.27 11.43-4.88 2.64-1.114 4.772-.4 6.553 1.84 1.762 2.21 2.16 3.805.625 6.164-1.578 2.427-3.635 4.542-5.256 6.946-1.486 2.2-3.266 4.458-3.88 6.944-2.346 9.505 4.36 17.395 14.14 17.042 3.125-.113 6.252-.406 9.377-.356 4.443.07 5.772 1.208 6.59 5.093.56 2.653-.87 4.872-4.198 6.59-2.393 1.234-4.843 2.383-7.133 3.785-4.82 2.95-7.687 7.272-7.414 12.988.282 5.95 3.66 9.987 9.163 12.178 3.508 1.4 7.093 2.603 10.59 4.03 1.833.747 2.728 2.235 2.734 4.318.01 4.11-.995 5.57-5.057 6.318-3.002.55-6.06.802-9.092 1.18-7.47.93-13.23 7.002-13.157 13.97.044 4.355 2.08 7.79 5.23 10.653 2.477 2.245 4.992 4.452 7.4 6.77 1.847 1.77 2.113 3.823.853 6.148-1.517 2.794-2.744 3.764-5.693 3.364-2.575-.348-5.093-1.132-7.64-1.71-2.123-.48-4.248-1.285-6.376-1.294-1.76-.005-3.56.85-5.27 1.507-1.07.41-1.935 1.383-3.01 1.725-5.35 1.684-7.73 9.914-5.408 15.27 1.616 3.723 3.554 7.304 5.173 11.024.947 2.18.22 4.06-1.608 5.636-2.795 2.41-4.254 2.705-7.435.732-1.903-1.18-3.78-2.518-5.344-4.105-4.037-4.1-8.898-5.68-14.49-5.134-1.323.13-2.822.542-3.84 1.337-4.604 3.593-7.396 8.138-6.893 14.278.262 3.187.463 6.39.42 9.583-.036 2.81-1.174 3.943-3.846 4.896-2.497.887-4.847.934-6.445-1.453-1.61-2.4-3.1-4.917-4.334-7.53-1.993-4.23-4.786-7.44-9.443-8.72-2.845-.78-5.43-.254-8.266.657-5.92 1.904-8.368 6.284-10 11.678-.71 2.354-1.724 4.636-2.782 6.863-1.21 2.545-3.466 2.707-5.968 2.41-2.367-.278-4.136-1.288-4.584-3.647-.54-2.843-.902-5.742-1.028-8.63-.244-5.608-2.114-10.23-7.193-13.133-4.68-2.67-10.655-2.294-14.712 1.25-3.006 2.628-5.675 5.637-8.53 8.435-3.22 3.155-4.644 3.263-8.454 1.006-1.7-1.005-2.676-2.437-2.32-4.312.593-3.122 1.29-6.257 2.31-9.262 1.752-5.173 1.64-10.066-1.644-14.555-3.75-5.127-10.33-6.617-16.708-3.885-3.008 1.287-5.884 2.896-8.93 4.078-3.74 1.456-4.976.9-7.457-2.307-1.384-1.788-1.64-3.635-.42-5.45 1.614-2.4 3.302-4.79 5.242-6.926 2.7-2.973 4.492-6.237 4.648-10.306.297-7.785-5.28-13.724-13.097-13.903-1.89-.04-3.78-.005-5.67-.005-.004.08-.004.16-.004.237zm103.906-91.256c-29.245-.167-56.353 23.7-56.165 56.857.172 30.04 24.752 54.204 55.19 54.073 31.616-.135 56.858-25.507 56.863-57.107.002-27.44-23.655-54.085-55.887-53.824z"/></svg>