<svg xmlns="http://www.w3.org/2000/svg" width="300" height="204" viewBox="0 0 300 204"><path fill="#213C72" d="M279.41 131.4v.82c-.156.093-.313.184-.47.276l.47.546v53.01c-.04.04-.12.09-.113.12.02.102.073.195.114.292v.82c-.475.074-.743.353-.82.823h-.822c-.71-.593-1.565-.405-2.37-.405-84.99-.008-169.98-.008-254.973 0-.805 0-1.66-.186-2.37.405h-.822c-.072-.477-.343-.753-.822-.822v-2.055c.042-.04.122-.09.115-.12-.02-.1-.073-.194-.114-.29v-51.78c.347-.273.34-.547 0-.82v-.823l.465-.04 66.8-.016c5.863 8.13 13.096 14.686 22.294 18.807 16.863 7.556 33.45 6.783 49.603-2.17 7.357-4.078 13.173-9.908 18.117-16.65l105.24.022.48.05z"/><path fill-rule="evenodd" clip-rule="evenodd" fill="#213C72" d="M279.41 70.99v.823c-7.3.02-14.602.056-21.902.06-27.076.016-54.152.022-81.23.032-.273-.39-.573-.766-.82-1.173-5.102-8.413-11.878-15.082-20.487-19.902-19.68-11.018-44.834-8.404-61.835 6.446-4.837 4.224-8.704 9.224-12.03 14.676-4.37-.026-8.737-.067-13.105-.074-17.196-.028-34.393-.045-51.59-.065v-.822c.178-.137.356-.274.534-.413l-.533-.408V17.98c.552-.685.56-1.37 0-2.055v-.822c.484-.064.757-.34.823-.822h1.644c.41.436.822.44 1.233 0h255.604c.41.442.82.44 1.232 0h1.644c.064.485.337.76.822.823v.822c-.04.04-.12.09-.114.12.02.102.073.195.114.292V70.17l-.472.55.47.27z"/><path fill-rule="evenodd" clip-rule="evenodd" fill="#2A3050" d="M18.055 188.108c.71-.59 1.565-.405 2.37-.405 84.99-.008 169.982-.008 254.973 0 .805 0 1.66-.188 2.37.405H18.055zM16.41 15.925c.56.685.552 1.37 0 2.055v-2.055zM278.59 188.108c.077-.47.346-.75.82-.822.164.712-.11.985-.82.822zM16.41 187.286c.48.07.75.346.823.822-.712.163-.986-.11-.822-.822zM17.233 14.282c-.065.482-.338.757-.822.822-.163-.712.11-.986.823-.822z"/><path fill-rule="evenodd" clip-rule="evenodd" fill="#777" d="M278.93 131.35c.248-.505-.316-1.255.48-1.595v1.644l-.48-.05zM16.41 129.755c.808.346.25 1.085.465 1.603l-.464.04v-1.643z"/><path fill-rule="evenodd" clip-rule="evenodd" fill="#2A3050" d="M16.41 70.17c.178.135.356.27.534.407l-.533.414v-.82zM279.41 15.104c-.484-.062-.757-.337-.82-.822.71-.164.984.11.82.822zM20.11 14.282c-.412.44-.823.435-1.234 0h1.233zM279.41 70.99l-.47-.27.47-.55v.82zM279.41 133.042l-.47-.546.47-.275v.822zM276.945 14.282c-.41.44-.822.44-1.232 0h1.232zM16.41 132.22c.34.275.347.55 0 .823v-.822zM16.41 184.82c.042.097.094.19.115.29.007.03-.073.08-.114.12v-.41zM279.41 186.465c-.04-.097-.093-.19-.113-.29-.007-.032.073-.08.114-.12v.41zM279.41 16.336c-.04-.097-.093-.19-.113-.29-.007-.032.073-.08.114-.122v.412z"/><path fill-rule="evenodd" clip-rule="evenodd" fill="#D33645" d="M83.675 131.343c-4.61-7.224-7.89-14.944-9.03-23.514-1.647-12.37.237-24.093 6.146-35.127.128-.238.21-.5.314-.75C84.43 66.5 88.298 61.5 93.134 57.275c17-14.85 42.156-17.464 61.836-6.446 8.61 4.82 15.386 11.49 20.488 19.902.246.408.546.783.82 1.173 1.546 3.727 1.52 3.67-2.268 5.462-7.033 3.326-14.032 6.725-21.046 10.094-.578-.437-.75-1.12-1.06-1.724-4.858-9.48-15.918-15.45-26.39-14.246-10.99 1.264-20.306 9.082-23.278 19.54-3.17 11.153.54 22.89 9.428 29.835 12.032 9.4 29.476 6.906 38.31-5.503 1.104-1.552 2.07-3.2 3.1-4.806 7.84 3.514 15.662 7.068 23.534 10.51 1.583.69 2.037 1.283 1.174 2.97-1.272 2.49-2.776 4.837-4.094 7.293-4.944 6.74-10.76 12.57-18.117 16.65-16.15 8.952-32.74 9.725-49.603 2.17-9.196-4.122-16.43-10.678-22.292-18.807z"/><path fill-rule="evenodd" clip-rule="evenodd" fill="#F9B726" d="M153.077 110.556c-1.03 1.604-1.996 3.254-3.1 4.806-8.835 12.41-26.28 14.904-38.31 5.503-8.89-6.946-12.6-18.683-9.43-29.835 2.973-10.458 12.29-18.276 23.28-19.54 10.47-1.204 21.53 4.766 26.388 14.246.31.603.482 1.288 1.06 1.725 1.752 4.993 2.735 10.063 2.002 15.402-.364 2.646-1.396 5.097-1.89 7.694z"/></svg>