<svg xmlns="http://www.w3.org/2000/svg" width="512" height="512" viewBox="0 0 512 512"><path d="M223.22 71.227c16.066-15.298 38.918-20.465 60.475-21.11 22.8-.204 45.59-.08 68.388-.07.09 24.05.098 48.11-.01 72.16-14.733-.026-29.477.036-44.21-.026-9.344-.58-18.938 6.5-20.636 15.763-.224 16.093-.08 32.195-.072 48.29 21.61.088 43.22-.028 64.83.053-1.583 23.28-4.47 46.456-7.86 69.54-19.087.18-38.186-.017-57.273.1-.17 68.665.09 137.33-.134 205.995-28.352.117-56.72-.053-85.072.08-.537-68.673.044-137.382-.295-206.065-13.83-.144-27.67.1-41.502-.116.053-23.086.018-46.17.026-69.247 13.822-.17 27.654.036 41.477-.098.42-22.442-.42-44.91.44-67.333 1.385-17.758 8.153-35.65 21.43-47.915z"/></svg>