<svg xmlns="http://www.w3.org/2000/svg" width="164" height="276" viewBox="0 0 164 276"><g fill-rule="evenodd" clip-rule="evenodd"><path fill="#010BB1" d="M157.782 160.852L81.542 90.67c-25.45 23.432-50.832 46.8-76.245 70.2-.22-.347-.138-.642-.138-.917-.005-50.022-.005-100.045-.005-150.068 0-.163.007-.326 0-.488-.013-.31.09-.497.44-.477.228.014.457 0 .685 0 50.153 0 100.306 0 150.458.004 1.423 0 1.223-.177 1.223 1.26.004 49.762.004 99.524.003 149.287v1.268l-.18.114zM38.776 61.538c0-1.65-.035-3.214.017-4.773.02-.635-.243-.93-.77-1.172-1.304-.6-2.647-1.08-4.027-1.463-4.708-1.306-9.193-.744-13.296 1.894-4.595 2.955-6.9 7.206-6.323 12.728.546 5.242 3.422 8.896 8.202 11.015 3.187 1.414 6.544 1.594 9.948.96 2.162-.404 4.18-1.19 6.04-2.384.468-.3.648-.635.635-1.19-.032-1.365 0-2.733.004-4.1v-.946c-.31.318-.355.573-.454.8-.667 1.547-1.603 2.897-2.883 4.004-3.89 3.365-11.257 3.5-15.207-2.185-2.98-4.287-3.07-10.33-.143-14.725 2.272-3.41 5.406-5.155 9.6-4.766 3.808.354 6.65 2.067 8.202 5.67.086.2.122.44.454.634zm24.93 2.916c.042-1.81-.52-3.83-1.5-5.38-2.778-4.4-8.747-6.298-13.787-4.292-4.005 1.593-6.53 4.515-7.045 8.844-.833 7.017 5.506 12.952 12.768 11.846 5.385-.822 9.438-5.594 9.563-11.018zm66.51-4.913c0-1.085-.038-2.095.014-3.1.028-.572-.237-.814-.705-1-1.212-.482-2.455-.86-3.73-1.126-4.136-.86-7.82.024-10.95 2.913-4.548 4.2-4.633 11.078-.186 15.274 1.992 1.882 4.428 2.816 7.132 3.045 3.248.275 6.236-.666 9.133-2.02.428-.2.526-.487.52-.923-.02-1.53-.01-3.06-.005-4.59 0-.39 0-.784.05-1.17.053-.42.422-.688.733-1.125-1.268 0-2.4-.004-3.532.004-.215.002-.446-.066-.648.082.803.873.823.928.823 2.24 0 1.14-.05 2.282.02 3.418.04.688-.235 1.077-.773 1.422-1.597 1.02-3.355 1.37-5.217 1.312-3.062-.097-5.364-1.478-6.77-4.2-1.57-3.05-1.737-6.234-.548-9.45 1.45-3.92 4.66-5.78 8.77-5.107 2.3.376 4.143 1.487 5.356 3.534.11.187.16.43.512.57zm-21.27-2.785c0-.682-.012-1.363.004-2.044.01-.37-.13-.545-.508-.517-.13.01-.26 0-.39 0-3.582 0-7.164 0-10.745.006-.214 0-.447-.077-.717.15 1.214.655 1.43 1.756 1.365 2.98-.02.358-.003.717-.003 1.075 0 4.753-.006 9.507.006 14.26.003 1.086-.3 1.984-1.3 2.545-.087.048-.104.154-.013.27h13.062c.13 0 .26.002.39-.01.19-.018.293-.142.294-.322.007-1.044.004-2.09.004-3.134-.8 1.202-1.304 1.605-2.35 1.617-2.213.026-4.427.003-6.64.017-.412.002-.574-.13-.572-.558.012-2.67.015-5.34-.005-8.01-.004-.525.195-.666.69-.654 1.205.03 2.41.03 3.614 0 .765-.018 1.482.03 2.08.803v-3.19c-.546.835-1.225.957-1.974.946-1.204-.017-2.41 0-3.613-.007-.765-.006-.78-.016-.783-.742-.01-1.954-.01-3.907 0-5.86.003-.696.02-.71.71-.716 1.432-.01 2.864.027 4.296-.013 1.164-.032 2.196.188 3.1 1.105zm37.63.102l.176-.09c0-.514.002-1.026 0-1.54-.004-1.1.12-1.02-.97-1.02-3.518 0-7.035 0-10.552.004-.278 0-.57-.065-.935.13.978.537 1.434 1.313 1.43 2.385-.013 5.44-.01 10.877-.002 16.316.002.92-.328 1.643-1.104 2.152-.1.063-.237.104-.247.27.19.174.424.087.634.088 4.136.006 8.27.004 12.408.004.13 0 .26-.006.39 0 .272.012.435-.083.434-.382-.004-1.042-.002-2.085-.002-3.127-.64 1.252-1.572 1.757-2.896 1.728-2.018-.043-4.037-.04-6.057-.017-.52.005-.663-.17-.66-.67.02-2.638.004-5.275.01-7.913.002-.664.018-.674.728-.68 1.172-.008 2.345.008 3.517-.005.79-.008 1.567-.008 2.166.837v-3.25c-.562.898-1.278.965-2.054.947-1.236-.03-2.476-.03-3.712.002-.52.014-.662-.17-.655-.67.03-1.986.04-3.973.015-5.96-.007-.528.182-.664.672-.657 1.53.02 3.062.04 4.59-.002 1.07-.027 2 .19 2.675 1.122zm-29.61-29.947c.907.526 1.17 1.254 1.45 1.978.446 1.152.916 2.295 1.37 3.443.276.696.747 1.39.758 2.092s-.42 1.418-.698 2.11c-.324.806-.53 1.663-1.015 2.5-.122-.276-.218-.47-.297-.67-1.262-3.173-2.522-6.345-3.778-9.52-.418-1.057-.413-1.06.178-1.992-.716 0-1.393-.006-2.07 0-.653.01-1.312-.037-2.165.058.902.555 1.275 1.21 1.572 1.958 1.666 4.2 3.36 8.392 5.045 12.584.296.734.6 1.464.98 2.39 1.094-2.645 1.92-5.17 3.06-7.755l2.897 7.574c.37-.207.38-.57.49-.86 1.723-4.632 3.433-9.268 5.143-13.903.267-.723.483-1.47 1.154-2h-2.713c.75.5.508.996.33 1.49l-3.69 10.177c-.06.17-.078.376-.32.422-.046-.088-.1-.17-.133-.26-1.327-3.496-2.646-6.994-3.986-10.485-.19-.495-.12-.913.276-1.368-1.282-.022-2.437-.06-3.838.038zM38.083 43.733c3.824.117 7.76-2.805 8.685-6.958.748-3.354-.245-6.2-3.006-8.29-3.368-2.55-8.154-2.37-11.397.33-3.573 2.976-4.072 8.122-1.102 11.692 1.765 2.124 4.066 3.173 6.82 3.226zm24.502-.097c-1.005-.623-1.676-1.494-2.283-2.427-.337-.52-.696-1.026-.987-1.57-.883-1.642-1.897-3.183-3.303-4.436.267-.338.652-.364.954-.54 1.507-.874 2.333-2.113 2.208-3.92-.118-1.69-1.07-2.737-2.538-3.397-.534-.24-1.102-.442-1.688-.448-2.11-.023-4.218-.01-6.352-.01.97 1.082.97 1.082.97 2.704v4.785c0 2.375-.014 4.75.007 7.127.006.738-.193 1.34-.803 1.782-.1.072-.233.135-.148.303h4.412c-.633-.498-1.133-.938-1.14-1.637-.022-1.855-.012-3.71-.022-5.565-.002-.33.136-.443.46-.463 1.233-.077 2.205.28 2.89 1.4 1.07 1.747 2.225 3.44 3.318 5.174.5.793 1.168 1.18 2.107 1.14.645-.026 1.292-.004 1.938-.004zM86.49 54.263h-5.868c1.156.63 1.43 1.49 1.426 2.548-.02 5.27-.03 10.54.007 15.81.008 1.14-.293 2.033-1.28 2.646-.063.04-.05.113.055.22h12.227c1.53 0 1.543 0 1.525-1.55-.008-.645.098-1.305-.13-2.113-.54 1.443-1.5 1.874-2.818 1.833-1.788-.056-3.578-.014-5.367-.014-.26 0-.52-.01-.78 0-.316.01-.498-.1-.478-.445.01-.162-.003-.325-.003-.488 0-5.27.007-10.54-.006-15.81 0-1.094.21-2.05 1.49-2.637zM21.886 43.605c-.063-.347-.32-.397-.477-.544-.5-.467-.8-1.024-.8-1.716-.005-2.734.002-5.47-.01-8.203-.003-.42.138-.57.562-.56 1.074.025 2.148.014 3.222.022.488.003.976.01 1.463.027.492.018.782.455 1.177.682v-3.085c-.48.673-1.003.93-1.668.924-1.367-.01-2.735-.025-4.1.012-.553.015-.645-.224-.64-.696.017-1.986.024-3.972-.005-5.957-.007-.53.19-.672.677-.666 1.4.02 2.8.004 4.2.006 1.835.002 1.835.004 3.242 1.15v-1.793c-.006-.855-.008-.864-.838-.864-3.58-.003-7.16 0-10.742.003-.24 0-.48.023-.72.036 1.05.737 1.29 1.7 1.28 2.852-.033 4.297-.013 8.594-.013 12.89 0 1.01-.008 2.02.002 3.028.008.88-.338 1.572-1.05 2.087-.118.084-.328.105-.258.366h5.494zM78.66 72.048c-.144-.086-.172-.056-.208.027-.506 1.153-1.392 1.61-2.645 1.58-1.952-.05-3.906-.01-5.86-.016-.852-.003-.86-.01-.86-.838-.003-3.32 0-6.64 0-9.96 0-2.084.003-4.168-.003-6.25-.002-.793.222-1.466.86-1.98.118-.096.427-.074.325-.357h-5.312c1.005.694 1.192 1.655 1.188 2.755-.016 5.176-.013 10.352.02 15.527.01 1.164-.283 2.11-1.32 2.734-.027.017-.004.116-.004.187.095.01.188.027.28.027H77.82c.13 0 .26-.005.39-.002.332.01.454-.16.452-.48-.01-.998-.003-1.996-.003-2.954zm4.907-28.413h1.056c3.873 0 7.745 0 11.618-.002.196 0 .392-.01.587 0 .358.02.542-.12.537-.504-.01-.898-.004-1.795-.004-2.692-.818 1.383-2.113 1.48-3.497 1.45-1.66-.038-3.32-.008-4.98-.01-1.15 0-1.04.072-1.04-1.058.004-5.142.028-10.284.008-15.425-.004-1.182.13-2.248 1.365-2.947-1.59-.182-4.85-.128-5.546.08.996.59 1.283 1.48 1.256 2.572-.04 1.69-.01 3.384-.01 5.077 0 3.547-.02 7.095.01 10.642.01 1.097-.27 1.982-1.258 2.56-.04.02-.044.106-.1.255zm25.277-14.6c0-.665-.033-1.113.008-1.554.052-.548-.202-.643-.687-.64-2.604.02-5.21.006-7.813.014-.382 0-.77-.064-1.226.083.61.51 1.04 1.065 1.038 1.883-.017 4.297-.01 8.595-.007 12.892 0 .59-.222 1.07-.637 1.478-.12.118-.4.15-.272.446h10.054c.13 0 .26 0 .39-.008.19-.013.31-.124.31-.307.006-.773.083-1.552-.07-2.51-.45 1-1.083 1.42-1.99 1.418-1.628-.003-3.256-.007-4.883.005-.387.003-.596-.075-.592-.532.02-2.082.018-4.166 0-6.25-.004-.468.227-.527.604-.52.78.017 1.562.004 2.344.006.74.002 1.51-.122 2.077.627v-2.43c-.398.41-.735.63-1.194.622-1.107-.017-2.215-.015-3.32.002-.375.006-.515-.12-.51-.502.015-1.562.02-3.125-.003-4.688-.006-.45.188-.542.583-.534.976.02 1.953.027 2.93 0 1.012-.028 2.007-.04 2.864 1.003zm37.788 1.38c0-.666-.027-1.333.01-1.998.025-.456-.165-.732-.523-.96-1.458-.923-4.365-1.27-6.212.067-2.4 1.74-2.47 5.172-.12 7.156.804.678 1.734 1.143 2.68 1.584.767.358 1.525.73 2.17 1.296.928.814 1.21 1.814.856 2.994-.345 1.15-1.146 1.78-2.302 1.98-1.654.287-2.91-.38-3.907-1.658-.477-.612-.775-1.323-1.165-2.013-.07 1-.062 1.99-.074 2.978-.005.353.216.525.455.696 1.775 1.264 3.712 1.69 5.825 1.07 2.188-.64 3.516-2.458 3.514-4.722-.003-1.473-.618-2.634-1.748-3.542-.945-.76-2.032-1.283-3.104-1.83-.754-.387-1.5-.79-2.104-1.398-.69-.696-.998-1.496-.697-2.483.308-1.008 1.002-1.575 2-1.78 1.34-.275 2.42.208 3.313 1.198.383.426.657.933 1.132 1.367zM61.445 29.04c.476-.948 1.336-.985 2.24-.955.78.025 1.56 0 2.34.007.733.007.746.014.746.755.004 2.44-.004 4.878-.006 7.318 0 1.79-.008 3.578.003 5.366.004.655-.178 1.212-.673 1.657-.125.112-.402.14-.303.383h4.422c-.918-.603-1.04-1.468-1.036-2.426.02-3.545.008-7.09.008-10.636 0-.618.014-1.236-.004-1.854-.012-.416.15-.58.57-.57.813.02 1.628.027 2.44 0 .88-.03 1.73-.007 2.338.842.04-.167.07-.23.07-.293.007-.325.012-.65.008-.976-.008-.793-.01-.804-.786-.804-3.513-.004-7.025-.013-10.538.008-.635.004-1.46-.308-1.86.162-.378.445-.09 1.246-.1 1.89-.003.02.032.038.123.13zm75.23 14.56c-.805-.683-.94-1.5-.933-2.432.024-3.806.007-7.61.015-11.417 0-.516-.062-1.035.07-1.55.138-.544.56-.885 1.012-1.307h-4.297c.99.692.983 1.7.973 2.716-.013 1.072-.004 2.145-.004 3.22 0 2.83-.003 5.66.003 8.488.002.706-.107 1.358-.658 1.868-.12.112-.398.16-.257.414h4.076z"/><path fill="#1791FB" d="M5.353 268.82c-.23-.524-.164-.85-.164-1.162-.004-15.436 0-30.87-.02-46.306 0-.71.188-1.195.73-1.68 7.107-6.36 14.194-12.743 21.284-19.123 8.784-7.905 17.565-15.813 26.35-23.717 8.98-8.077 17.96-16.15 26.94-24.228 8.446-7.598 16.892-15.2 25.337-22.798.8-.72 1.594-1.442 2.4-2.15.703-.618.588-.564 1.275-.018 3.898 3.098 7.794 6.203 11.69 9.306.433.345.848.715 1.3 1.033.44.308.396.56.057.93-1.582 1.73-3.14 3.48-4.71 5.22-5.277 5.85-10.557 11.695-15.836 17.542-4.58 5.074-9.164 10.146-13.744 15.22-4.123 4.566-8.24 9.138-12.365 13.703-6.873 7.61-13.75 15.214-20.624 22.823-8.444 9.35-16.884 18.7-25.326 28.052-6.086 6.74-12.172 13.482-18.256 20.226-1.983 2.198-3.963 4.4-5.942 6.605-.107.122-.19.264-.375.52zM5.29 214.89c-.184-.283-.1-.58-.1-.855-.004-15.66 0-31.317-.02-46.977 0-.658.206-1.068.71-1.468 9.596-7.595 19.18-15.203 28.763-22.812 6.22-4.937 12.435-9.878 18.65-14.82.894-.71.896-.72 1.69.078 5.976 5.99 11.95 11.985 17.924 17.978.092.093.176.193.276.275.373.304.3.56-.02.876-1.347 1.323-2.676 2.665-4.01 4-21.04 21.04-42.08 42.078-63.124 63.114-.218.22-.39.51-.74.61z"/><path fill="#FEBB40" d="M99.918 120.217c-.024.315-.276.444-.454.623-1.887 1.89-3.775 3.776-5.662 5.666l-11.73 11.75c-.093.092-.19.18-.283.27-.588.568-.59.57-1.142.02-2.693-2.694-5.385-5.39-8.08-8.083-2.992-2.992-5.986-5.983-8.98-8.975-.115-.115-.228-.233-.34-.35-.567-.602-.57-.605.054-1.103 2.494-1.986 4.99-3.97 7.486-5.955 3.388-2.692 6.777-5.382 10.165-8.075.598-.475.62-.487 1.24.005 4.816 3.824 9.627 7.652 14.442 11.48.916.728 1.835 1.455 2.75 2.184.202.162.422.308.533.543z"/><path fill="#F6F8FA" d="M38.776 61.538c-.333-.195-.368-.433-.454-.633-1.55-3.604-4.394-5.317-8.203-5.67-4.194-.39-7.328 1.354-9.6 4.765-2.927 4.394-2.836 10.438.143 14.726 3.95 5.684 11.317 5.55 15.207 2.186 1.28-1.108 2.216-2.458 2.883-4.003.1-.23.145-.484.454-.802v.946c-.005 1.367-.037 2.734-.004 4.1.013.555-.167.89-.635 1.19-1.86 1.193-3.878 1.98-6.04 2.383-3.404.635-6.76.455-9.95-.96-4.778-2.12-7.655-5.772-8.2-11.014-.577-5.522 1.727-9.773 6.322-12.728 4.103-2.638 8.588-3.2 13.296-1.894 1.38.384 2.724.863 4.026 1.464.527.244.79.537.77 1.172-.05 1.558-.016 3.12-.016 4.772zM63.706 64.454c-.125 5.424-4.177 10.196-9.562 11.018-7.262 1.106-13.6-4.83-12.768-11.846.515-4.33 3.04-7.25 7.044-8.844 5.04-2.005 11.01-.107 13.787 4.293.977 1.55 1.54 3.57 1.5 5.38zm-18.874.283c.003 2.172.634 4.376 2.096 6.323 3.048 4.06 9.6 3.913 12.012-1.154.683-1.434 1.024-2.947 1.094-4.515.11-2.504-.445-4.846-1.95-6.894-3.025-4.112-9.104-3.838-11.763.522-1.023 1.68-1.46 3.525-1.488 5.72zM130.215 59.54c-.353-.14-.402-.383-.513-.57-1.214-2.046-3.058-3.156-5.355-3.533-4.11-.674-7.322 1.188-8.77 5.106-1.19 3.217-1.024 6.4.548 9.45 1.404 2.723 3.707 4.104 6.77 4.2 1.86.06 3.62-.29 5.216-1.31.54-.346.814-.735.773-1.423-.067-1.136-.018-2.278-.02-3.418 0-1.312-.02-1.367-.822-2.24.203-.147.435-.08.65-.08 1.133-.01 2.265-.005 3.532-.005-.312.437-.68.704-.734 1.126-.05.385-.048.778-.05 1.168-.004 1.53-.014 3.062.007 4.592.006.436-.093.724-.52.924-2.897 1.353-5.886 2.294-9.134 2.02-2.703-.23-5.14-1.164-7.132-3.045-4.447-4.195-4.362-11.072.187-15.273 3.128-2.89 6.813-3.774 10.95-2.913 1.274.266 2.518.643 3.73 1.125.467.185.732.427.704 1-.052 1.005-.015 2.015-.015 3.1zM108.946 56.755c-.904-.917-1.937-1.137-3.1-1.104-1.43.04-2.863.004-4.296.014-.688.005-.706.02-.71.716-.01 1.953-.01 3.907 0 5.86.004.726.02.736.784.74 1.204.01 2.41-.01 3.613.008.75.01 1.428-.11 1.974-.945v3.188c-.597-.772-1.314-.82-2.078-.8-1.203.03-2.41.026-3.613-.002-.497-.012-.696.13-.692.654.02 2.67.017 5.34.005 8.01-.002.427.16.56.57.557 2.215-.014 4.43.01 6.643-.017 1.045-.012 1.55-.415 2.35-1.617 0 1.044.002 2.09-.004 3.134 0 .18-.104.304-.294.322-.13.012-.26.01-.39.01H96.646c-.09-.116-.074-.222.012-.27 1-.56 1.304-1.458 1.3-2.545-.01-4.753-.004-9.507-.005-14.26 0-.358-.016-.717.003-1.074.064-1.225-.15-2.326-1.365-2.982.27-.225.504-.15.718-.15 3.58-.005 7.163-.005 10.744-.005.13 0 .26.01.39 0 .38-.028.52.147.51.518-.017.68-.006 1.36-.006 2.042zM146.577 56.857c-.674-.933-1.606-1.15-2.677-1.12-1.53.04-3.06.023-4.59 0-.49-.006-.68.13-.673.66.024 1.985.015 3.972-.015 5.958-.007.5.134.685.655.67 1.236-.033 2.476-.03 3.712-.002.774.018 1.49-.05 2.053-.947v3.25c-.6-.845-1.376-.845-2.166-.837-1.172.012-2.345-.004-3.517.004-.71.005-.726.016-.727.68-.007 2.638.008 5.275-.01 7.913-.004.5.138.675.66.67 2.02-.022 4.038-.026 6.056.017 1.323.03 2.255-.476 2.895-1.728 0 1.042-.002 2.084 0 3.127.002.3-.16.395-.432.382-.13-.006-.26 0-.39 0-4.138 0-8.273.002-12.41-.004-.21 0-.443.087-.633-.087.01-.166.148-.207.246-.27.776-.51 1.106-1.233 1.104-2.15-.007-5.44-.01-10.878.003-16.317.003-1.072-.453-1.848-1.43-2.386.364-.194.655-.127.934-.128 3.517-.006 7.034-.006 10.55-.004 1.092 0 .968-.08.972 1.02v1.54l-.173.09z"/><path fill="#F2F5F8" d="M116.966 26.91c1.4-.1 2.557-.06 3.838-.038-.397.455-.467.873-.276 1.37 1.34 3.49 2.66 6.988 3.986 10.483.034.09.087.173.132.26.243-.045.26-.252.322-.42 1.23-3.393 2.46-6.786 3.688-10.18.18-.492.42-.988-.33-1.488h2.713c-.672.53-.89 1.278-1.155 2-1.71 4.636-3.42 9.27-5.144 13.902-.107.29-.117.653-.488.86l-2.898-7.575c-1.14 2.583-1.965 5.11-3.06 7.756-.38-.925-.684-1.655-.98-2.39-1.685-4.193-3.378-8.384-5.044-12.584-.297-.748-.67-1.403-1.572-1.958.853-.095 1.512-.05 2.166-.057.677-.007 1.354 0 2.07 0-.592.933-.597.935-.18 1.993 1.257 3.174 2.518 6.346 3.78 9.52.078.2.174.394.297.67.484-.838.69-1.695 1.016-2.5.28-.693.71-1.41.698-2.11s-.48-1.397-.757-2.092c-.455-1.147-.925-2.29-1.37-3.442-.28-.724-.544-1.452-1.45-1.978zM38.083 43.733c-2.755-.054-5.055-1.103-6.82-3.226-2.97-3.57-2.472-8.716 1.1-11.69 3.244-2.702 8.03-2.88 11.398-.332 2.762 2.09 3.755 4.936 3.007 8.29-.925 4.154-4.86 7.076-8.684 6.958zm6.003-8.427c.012-1.85-.506-3.532-1.414-4.878-2.277-3.378-7.36-3.207-9.39.298-.987 1.7-1.303 3.53-1.072 5.443.228 1.885.976 3.547 2.422 4.86 2.208 2 6.6 1.97 8.432-1.51.697-1.32 1.016-2.728 1.022-4.214zM62.585 43.636c-.646 0-1.293-.02-1.938.005-.94.04-1.607-.348-2.107-1.14-1.093-1.732-2.25-3.426-3.318-5.174-.685-1.12-1.657-1.476-2.89-1.4-.324.02-.462.136-.46.465.01 1.856 0 3.71.02 5.566.01.7.51 1.14 1.142 1.637h-4.412c-.085-.168.047-.23.148-.304.61-.442.81-1.045.803-1.783-.02-2.376-.007-4.752-.007-7.128v-4.786c0-1.622 0-1.622-.97-2.704 2.133 0 4.243-.014 6.352.01.587.005 1.154.207 1.688.447 1.47.66 2.42 1.706 2.538 3.398.125 1.806-.7 3.045-2.208 3.92-.302.174-.687.2-.954.54 1.406 1.252 2.42 2.793 3.303 4.436.292.543.65 1.05.987 1.57.607.932 1.278 1.803 2.283 2.426zM52.03 31.243c0 .908-.01 1.816.002 2.724.01.672.02.677.72.697.585.017 1.166.01 1.74-.14 1.636-.427 2.68-1.946 2.51-3.675-.158-1.626-1.53-2.925-3.18-3-.39-.018-.783.03-1.168-.013-.556-.062-.645.216-.632.682.024.906.008 1.814.007 2.723zM86.49 54.263c-1.28.585-1.49 1.543-1.487 2.637.013 5.27.006 10.54.006 15.808 0 .163.01.326 0 .488-.02.346.163.456.478.445.26-.008.52 0 .78 0 1.79 0 3.58-.04 5.368.015 1.318.042 2.28-.39 2.817-1.833.23.81.123 1.47.13 2.114.02 1.55.007 1.548-1.525 1.548H80.832c-.104-.106-.118-.18-.056-.22.988-.612 1.29-1.505 1.28-2.646-.036-5.27-.027-10.54-.006-15.808.004-1.058-.27-1.917-1.426-2.548h5.866z"/><path fill="#F6F8FA" d="M21.886 43.605h-5.494c-.07-.26.14-.282.258-.367.71-.515 1.058-1.206 1.05-2.087-.012-1.008-.003-2.018-.003-3.026 0-4.297-.02-8.594.014-12.89.01-1.153-.23-2.115-1.28-2.853.24-.012.48-.035.72-.035 3.58-.003 7.162-.006 10.742-.003.83 0 .832.01.837.864.002.575 0 1.15 0 1.792-1.408-1.145-1.408-1.146-3.244-1.15-1.4 0-2.8.014-4.2-.005-.486-.007-.683.134-.675.665.03 1.985.023 3.97.006 5.957-.004.472.087.71.64.696 1.365-.036 2.733-.022 4.1-.01.665.006 1.187-.25 1.668-.924v3.085c-.395-.226-.685-.663-1.177-.682-.487-.02-.976-.024-1.463-.027-1.074-.007-2.148.004-3.222-.022-.424-.01-.565.14-.563.562.012 2.734.004 5.468.01 8.203 0 .692.3 1.25.8 1.717.155.148.413.198.476.545z"/><path fill="#F2F5F8" d="M78.66 72.048c0 .958-.006 1.956.002 2.953.002.32-.12.49-.453.48-.13-.002-.26.004-.39.004H65.122c-.093 0-.187-.02-.28-.028 0-.07-.024-.17.002-.186 1.038-.625 1.33-1.57 1.322-2.734-.034-5.175-.037-10.35-.02-15.527.002-1.102-.185-2.062-1.19-2.756h5.312c.102.283-.208.26-.325.356-.64.515-.864 1.188-.86 1.98.006 2.083 0 4.167 0 6.25 0 3.32 0 6.64.002 9.96 0 .83.008.836.86.838 1.954.004 3.908-.035 5.86.015 1.253.032 2.14-.426 2.645-1.58.036-.08.064-.11.207-.025z"/><path fill="#F6F8FA" d="M83.567 43.635c.056-.15.06-.234.1-.257.99-.576 1.27-1.46 1.26-2.56-.032-3.547-.012-7.094-.012-10.642 0-1.692-.03-3.385.01-5.077.028-1.09-.26-1.983-1.256-2.573.695-.208 3.955-.262 5.545-.08-1.234.7-1.37 1.765-1.364 2.947.022 5.142-.003 10.283-.007 15.425 0 1.13-.11 1.058 1.04 1.058 1.66 0 3.32-.03 4.98.01 1.384.03 2.68-.068 3.497-1.45 0 .896-.007 1.793.004 2.69.005.384-.18.522-.537.504-.195-.01-.39 0-.586 0-3.872 0-7.744 0-11.617.002h-1.056z"/><path fill="#F2F5F8" d="M108.844 29.036c-.856-1.042-1.852-1.03-2.865-1.003-.978.027-1.955.02-2.93 0-.397-.008-.59.084-.584.534.02 1.562.018 3.125.002 4.688-.004.382.136.508.51.502 1.106-.017 2.214-.02 3.32-.002.46.007.796-.213 1.194-.62v2.428c-.567-.75-1.337-.625-2.077-.627-.78-.002-1.562.01-2.344-.005-.377-.007-.607.052-.603.52.018 2.084.02 4.168 0 6.25-.004.458.205.536.59.533 1.628-.012 3.256-.01 4.884-.005.908.002 1.54-.42 1.992-1.418.152.958.075 1.737.07 2.51-.002.184-.12.295-.31.308-.13.01-.26.008-.39.008H99.246c-.127-.296.152-.328.272-.446.414-.41.636-.888.636-1.478-.003-4.297-.01-8.594.007-12.892.003-.818-.427-1.373-1.038-1.883.454-.146.844-.082 1.226-.083 2.605-.007 5.21.006 7.814-.013.484-.003.738.092.687.64-.04.442-.006.89-.006 1.556zM146.632 30.415c-.475-.434-.75-.94-1.133-1.367-.895-.99-1.976-1.474-3.315-1.198-.997.205-1.69.772-2 1.78-.3.988.007 1.79.698 2.484.605.61 1.35 1.012 2.104 1.397 1.07.55 2.158 1.073 3.104 1.832 1.13.908 1.746 2.07 1.748 3.542.002 2.265-1.325 4.08-3.514 4.722-2.113.62-4.05.194-5.824-1.07-.24-.17-.46-.343-.455-.695.013-.987.004-1.977.074-2.977.39.69.687 1.4 1.164 2.013.996 1.278 2.253 1.944 3.907 1.657 1.156-.2 1.958-.83 2.303-1.98.354-1.178.07-2.18-.856-2.993-.645-.564-1.403-.938-2.17-1.296-.945-.44-1.876-.906-2.68-1.584-2.35-1.983-2.28-5.416.12-7.156 1.847-1.338 4.754-.99 6.21-.066.36.227.55.503.524.96-.036.664-.008 1.33-.008 1.997z"/><path fill="#F6F8FA" d="M61.445 29.04c-.09-.09-.125-.108-.125-.127.01-.645-.277-1.446.102-1.89.4-.47 1.225-.158 1.86-.162 3.512-.02 7.024-.01 10.537-.007.775 0 .777.01.785.804.003.325 0 .65-.008.976 0 .063-.03.125-.07.293-.608-.85-1.457-.873-2.338-.843-.813.028-1.627.02-2.44 0-.422-.01-.583.155-.57.57.018.618.003 1.237.003 1.855 0 3.545.01 7.09-.008 10.636-.005.958.118 1.823 1.036 2.426h-4.42c-.1-.243.18-.27.303-.383.496-.445.677-1.002.673-1.656-.012-1.788-.005-3.577-.003-5.365.002-2.44.01-4.88.007-7.318 0-.74-.013-.748-.745-.755-.78-.008-1.562.02-2.342-.007-.902-.03-1.762.007-2.238.956zM136.676 43.6H132.6c-.142-.254.136-.3.257-.413.55-.51.66-1.163.658-1.868-.006-2.83-.003-5.66-.003-8.49 0-1.074-.01-2.147.004-3.22.01-1.017.017-2.024-.973-2.716h4.296c-.452.422-.875.763-1.014 1.306-.132.516-.068 1.035-.07 1.552-.007 3.805.01 7.61-.014 11.417-.007.93.128 1.747.934 2.43z"/><path fill="#010BB1" d="M44.832 64.737c.027-2.194.465-4.038 1.49-5.72 2.66-4.36 8.738-4.633 11.762-.52 1.506 2.047 2.062 4.39 1.95 6.894-.068 1.57-.41 3.083-1.093 4.516-2.41 5.066-8.963 5.212-12.01 1.154-1.464-1.947-2.095-4.15-2.098-6.323zM44.086 35.306c-.006 1.486-.325 2.893-1.02 4.214-1.834 3.48-6.225 3.512-8.433 1.51-1.447-1.312-2.194-2.974-2.422-4.86-.23-1.912.086-3.742 1.072-5.443 2.03-3.505 7.114-3.676 9.39-.298.908 1.344 1.426 3.026 1.414 4.876zM52.03 31.243c0-.908.017-1.816-.007-2.724-.012-.467.077-.745.632-.683.384.043.778-.005 1.167.013 1.65.075 3.023 1.373 3.18 3 .17 1.728-.874 3.248-2.51 3.674-.573.15-1.154.157-1.738.14-.7-.02-.712-.025-.72-.697-.013-.908-.005-1.817-.004-2.724z"/></g></svg>