<svg xmlns="http://www.w3.org/2000/svg" width="300" height="300" viewBox="0 0 300 300"><path fill-rule="evenodd" clip-rule="evenodd" d="M34.925 184.14c.304-3.488.534-6.984.926-10.465 1.242-11.004 3.937-21.657 7.966-31.967C50.2 125.374 59.48 110.884 71.764 98.36c17.838-18.183 39.134-30.28 63.97-36.062 2.83-.66 5.705-1.133 8.56-1.695.17-.033.335-.088.507-.294l-4.107-1.058c.004-.026.01-.053.013-.08 2.17.334 4.334.904 6.507.935 2.226.03 4.46-.466 6.752-.89l-11.388-4.284.05-.168c.335.09.675.168 1.006.273 4.175 1.318 8.323 2.73 12.538 3.905 1.282.357 2.747.056 4.175-.13l-16.41-8.393c.02-.056.044-.112.067-.167.374.16.75.313 1.122.48 5.824 2.603 11.643 5.222 17.48 7.8.686.303 1.47.386 2.207.57l.146-.335c-6.164-4.1-12.328-8.203-18.492-12.304l.11-.18 21.55 12.75.166-.24-19.06-16.088.138-.172 20.38 15.446.132-.136-17.46-18.535c.053-.055.105-.108.16-.162l18.327 17.523.162-.13c-5.034-6.743-10.066-13.485-15.1-20.226l.183-.145c5.402 6.5 10.806 13 16.21 19.498l.155-.1c-4.207-7.23-8.414-14.462-12.623-21.693.07-.042.14-.085.207-.128 4.54 6.937 9.082 13.874 13.62 20.812l.202-.1-10.065-22.992.205-.1c3.78 7.53 7.56 15.06 11.338 22.59.06-.024.12-.05.182-.073l-7.424-24.137c.073-.023.146-.048.218-.072l8.71 23.8.18-.045c-1.585-8.508-3.173-17.018-4.76-25.528l.19-.04c2.035 8.434 4.068 16.867 6.104 25.3l.178-.023-1.795-25.577.207-.018c1.04 8.466 2.082 16.933 3.12 25.398.065 0 .128.002.192.004.377-8.506.752-17.013 1.13-25.52h.255v25.748l.317.02c1.367-8.573 2.736-17.146 4.105-25.72.064.008.13.014.193.02-.908 8.56-1.818 17.118-2.73 25.676l.185.035 7.035-25.164.182.045-5.686 25.383.19.068c3.217-7.887 6.432-15.774 9.646-23.66.066.022.133.047.2.07-2.792 8.03-5.58 16.057-8.372 24.085.062.03.125.057.188.085 4.16-7.592 8.322-15.184 12.48-22.776.06.028.115.057.172.086l-11.37 23.61.142.09c4.824-6.827 9.65-13.654 14.475-20.48l.212.136-13.254 21.008.164.124 16.828-18.817.178.148c-5.27 6.555-10.545 13.11-15.816 19.666l.146.146c6.29-5.592 12.576-11.185 18.865-16.777.055.056.107.113.162.17l-18.12 17.888c.034.045.07.09.103.137l21.07-14.806.13.175-20.204 15.838.09.158c7.287-3.964 14.572-7.93 21.86-11.894l.128.22c-7.09 4.356-14.18 8.71-21.27 13.067.023.05.047.103.072.154l23.838-9.64c.03.064.06.13.088.196-7.553 3.524-15.104 7.05-22.656 10.574l.092.27 24.31-6.72c.02.062.038.123.056.184l-21.137 7.07c.004.103.008.206.014.31.68.054 1.384.245 2.044.144 6.527-.995 13.05-2.038 19.57-3.065.3-.048.598-.072.92.04l-18.346 3.875c2.188 1.112 4.352 1.333 6.648 1.175 3.87-.267 7.752-.35 11.63-.506.185-.007.372.026.562.15-4.227.4-8.453.802-12.72 1.205 4.44 2.326 9.07 3.613 14.05 3.464h-5.46c18.52 8.494 34.304 20.56 47.345 36.33-.357.296-.684.568-.99.824-22.145-20.324-48.074-32.108-77.955-34.69-30.54-2.64-58.82 4.45-84.217 21.644-28.752 19.467-47.183 46.342-54.594 80.307-7.41 33.96-1.752 66.002 15.738 96.04-.172-.185-.356-.36-.512-.557-12.953-16.37-21.524-34.78-25.67-55.237-1.277-6.3-2.077-12.663-2.353-19.09-.02-.464-.102-.928-.154-1.392V184.14z"/></svg>