<svg xmlns="http://www.w3.org/2000/svg" width="167" height="257" viewBox="0 0 167 257"><path fill-rule="evenodd" clip-rule="evenodd" d="M31.288 7.09c43.617 9.686 86.616 19.237 130.224 28.922-1.616 9.09-3.132 17.882-4.746 26.654-9.236 50.215-18.43 100.437-27.922 150.603-.522 2.758-3.495 5.11-5.57 7.438-.236.265-2.09-.81-3.125-1.383-2.37-1.314-4.6-3.553-7.068-3.838-2.747-.318-5.245 1.258-5.336 5.07-.19 7.983-.682 15.963-1.2 23.934-.12 1.826-.855 3.612-1.68 6.897-2.387-2.656-3.973-4.034-5.093-5.72-30.85-46.465-61.615-92.983-92.533-139.4-2.164-3.25-2.487-5.99-1.426-9.688C13.98 68.136 21.92 39.63 29.94 11.15c.352-1.247.813-2.46 1.348-4.06z"/></svg>