<svg xmlns="http://www.w3.org/2000/svg" width="300" height="95.5" viewBox="0 0 300 95.5"><g fill-rule="evenodd" clip-rule="evenodd" stroke-miterlimit="10"><path d="M9.397 78.817c2.182-3.785 3.988-7.092 6.002-10.265.4-.632 1.587-1.028 2.434-1.068 2.788-.13 5.585-.046 8.378-.053.698 0 1.415.064 2.09-.07 3.652-.73 8.59-11.457 6.69-14.647-6.102-10.253-5.46-8.49.15-18.464.53-.944 1.07-1.882 1.833-3.223-4.425 0-8.528-.078-12.624.075-.7.025-1.568.9-2.005 1.605-1.63 2.625-3.312 5.254-4.555 8.067-.515 1.164-.343 2.955.176 4.183.965 2.278 2.69 4.246 3.568 6.546.622 1.633 1.015 3.877.377 5.36-1.513 3.522-3.7 6.755-6.025 10.82-3.788-6.904-7.49-13.114-10.626-19.6-1.563-3.23-.922-6.91.834-10.112 2.83-5.156 5.757-10.26 8.76-15.318 1.457-2.45 3.61-3.794 6.66-3.75 7.268.103 14.538.032 22.495.032-1.488 2.63-2.478 5.03-4.03 6.98-2.712 3.407-2.438 6.353.022 9.8 2.422 3.395 4.273 7.197 6.39 10.812 2.925 5 2.952 9.992.03 15.014-2.61 4.483-5.22 8.965-7.74 13.498-1.445 2.604-3.405 3.884-6.503 3.823-7.376-.137-14.754-.043-22.783-.043zM184.754 36.186c5.49 0 10.98-.04 16.47.01 4.966.046 6.794 3.212 4.353 7.553-2.398 4.26-4.908 8.455-7.328 12.703-2.233 3.925-5.526 5.754-10.083 5.713-10.48-.097-20.96-.016-31.44-.038-5.946-.013-7.71-3.126-4.74-8.288 2.24-3.892 4.474-7.784 6.71-11.678 2.324-4.048 5.576-6.256 10.49-6.03 5.176.24 10.377.054 15.567.054zm-9.88 20.885v.07c1.396 0 2.827.19 4.175-.058 1.087-.2 2.51-.652 3.032-1.472 2.41-3.775 4.63-7.68 6.713-11.645.297-.565-.482-2.462-.818-2.476-3.86-.162-7.736-.13-11.602-.004-.537.018-1.215.725-1.547 1.28-2.236 3.77-4.416 7.574-6.58 11.387-.98 1.723-.193 2.71 1.553 2.88 1.677.167 3.382.038 5.075.038zM56.005 62.134c1.045-3.852 2.88-5.236 6.566-5.082 7.87.332 15.76.12 23.642.077.938-.007 2.253-.05 2.722-.623.743-.908 1.147-2.274 1.184-3.463.01-.33-1.778-1.01-2.75-1.026-5.585-.102-11.173-.017-16.76-.064-5.54-.047-7.145-3.087-4.65-8.043 2.76-5.482 6.696-8.06 13.09-7.833 11.062.394 22.146.11 33.22.11h3.305c-1.288 4.62-1.73 4.966-6.11 4.966-7.582 0-15.165-.018-22.747.023-.95.006-2.254.01-2.768.578-.794.878-1.046 2.244-1.53 3.402 1.04.396 2.07 1.113 3.114 1.136 5.485.115 10.974.01 16.46.066 5.754.06 7.07 2.997 4.862 8.206-2.64 6.224-6.554 8.146-13.273 7.752-11.333-.665-22.736-.183-34.11-.183h-3.465zM157.305 36.185c-1.807 4.967-1.807 4.967-6.344 4.967-4.486 0-8.987-.2-13.453.112-1.51.105-3.42 1.153-4.294 2.38-2.186 3.07-3.92 6.47-5.767 9.775-1.44 2.577-.855 3.594 2.167 3.705 2.59.097 5.185.026 7.777.027h7.785c-1.44 4.792-1.69 4.98-6.4 4.98-7.777 0-15.555.02-23.333-.007-5.774-.02-7.62-3.15-4.797-8.095 2.272-3.98 4.606-7.928 6.862-11.92 2.32-4.104 5.647-6.08 10.507-5.983 9.665.192 19.334.058 29.29.058zM253.45 36.185c-1.798 4.966-1.858 5.43-6.313 4.853-5.848-.76-9.146 1.384-11.42 6.705-1.867 4.368-4.61 8.37-7.088 12.46-.495.815-1.53 1.807-2.35 1.836-4.85.172-9.706.084-15.124.084l11.87-20.774H209.68c.605-4.195 1.636-5.163 5.19-5.163 11.866-.004 23.733-.002 35.6-.002h2.98zM253.557 62.135c4.146-7.24 7.932-13.845 11.977-20.9h-10.297c1.143-4.573 1.736-5.048 6.016-5.048h34.377c-.81 4.207-1.736 5.392-5.496 4.87-6.08-.848-9.8 1.18-12.15 6.965-1.71 4.204-4.53 7.944-6.695 11.978-.88 1.636-1.95 2.223-3.778 2.175-4.455-.12-8.914-.04-13.955-.04z"/></g></svg>