<svg xmlns="http://www.w3.org/2000/svg" viewBox="0 0 512 512"><path d="M23.265 327.916s61.06 92.58 185.385 90.44c80.158-2.396 193.843-37.765 224.235-154.665 0 0 32.645 5.51 55.84-19.916-31.643 4.393-52.665-5.54-52.665-5.54s41.36-1.178 50.545-25.66C462.1 223.21 431.8 214.16 431.8 214.16s-14.285-87.522-101.263-90.727c0 0 46.5-9.43 39.22-20.163-5.86-7.772-38.165 6.718-38.165 6.718s18.022-7.936 17.644-16.394c-18.238 2.07-35 15.565-35 15.565s5.1-8.152 5.223-11.603c-43.46 24.105-73.023 114.135-73.023 114.135s-10.998-12.216-29.317-25.508c-44.278-26.02-125.942-56.924-125.942-56.924s-5.458 33.69 38.123 58.368c-17.857 1.423-26.797 3.727-26.797 3.727s0 35.78 51.897 47.452c-24.115.84-31.98 12.8-31.98 12.8s13.558 31.96 56.28 29.37c-34.766 17.888-12.258 42.403 16.158 39.792-91.35 81.775-171.59 7.146-171.59 7.146z"/></svg>