<svg xmlns="http://www.w3.org/2000/svg" width="512" height="512" viewBox="0 0 512 512"><path d="M63.95 233.687h277.646v216.586H63.95V233.687zM192.614 142.224c0 44.278-35.737 80.19-79.852 80.19-44.083 0-79.82-35.91-79.82-80.19 0-44.33 35.736-80.22 79.82-80.22 44.103 0 79.852 35.89 79.852 80.22zM368.25 141.886c0 44.32-35.747 80.22-79.86 80.22-44.033 0-79.81-35.9-79.81-80.22 0-44.288 35.778-80.17 79.81-80.17 44.113 0 79.86 35.882 79.86 80.17zM359.168 289.23h38.902V394.75h-38.902V289.23zM415.19 287.826v94.423l63.868 63.855v-208.24z"/></svg>